<svg width="18" height="18" viewBox="0 0 18 18" fill="none" xmlns="http://www.w3.org/2000/svg">
<path fill-rule="evenodd" clip-rule="evenodd" d="M9.00007 0.421875C4.1466 0.421875 0.210938 4.35681 0.210938 9.21101C0.210938 13.0943 2.72929 16.3888 6.22148 17.551C6.66074 17.6324 6.822 17.3603 6.822 17.1282C6.822 16.9186 6.81385 16.2262 6.81007 15.4918C4.36492 16.0235 3.84897 14.4548 3.84897 14.4548C3.44916 13.4389 2.87309 13.1688 2.87309 13.1688C2.07565 12.6233 2.9332 12.6345 2.9332 12.6345C3.81578 12.6965 4.2805 13.5402 4.2805 13.5402C5.06441 14.8839 6.33661 14.4954 6.83816 14.2709C6.91704 13.7028 7.14482 13.3151 7.39617 13.0956C5.44399 12.8733 3.39181 12.1197 3.39181 8.75196C3.39181 7.79239 3.73515 7.00834 4.29739 6.39283C4.20613 6.17146 3.90529 5.27753 4.38253 4.06689C4.38253 4.06689 5.12059 3.83067 6.80017 4.96781C7.50126 4.77307 8.25314 4.67541 9.00007 4.67206C9.74701 4.67541 10.4995 4.77307 11.2019 4.96781C12.8794 3.83067 13.6164 4.06689 13.6164 4.06689C14.0949 5.27753 13.7939 6.17146 13.7026 6.39283C14.2662 7.00834 14.6072 7.79239 14.6072 8.75196C14.6072 12.1277 12.5511 12.871 10.5939 13.0886C10.9092 13.3614 11.1901 13.8962 11.1901 14.7162C11.1901 15.8922 11.1799 16.8387 11.1799 17.1282C11.1799 17.3621 11.3381 17.6361 11.7836 17.5498C15.2739 16.3863 17.7891 13.093 17.7891 9.21101C17.7891 4.35681 13.854 0.421875 9.00007 0.421875ZM3.50275 12.9422C3.4834 12.9858 3.4147 12.9989 3.35212 12.969C3.28837 12.9403 3.25256 12.8808 3.27323 12.837C3.29215 12.792 3.36099 12.7795 3.4246 12.8096C3.48849 12.8383 3.52488 12.8984 3.50275 12.9422ZM3.93508 13.3279C3.89317 13.3668 3.81122 13.3488 3.75563 13.2873C3.69814 13.2261 3.68737 13.1441 3.72986 13.1047C3.77309 13.0658 3.85256 13.084 3.91019 13.1453C3.96768 13.2073 3.97889 13.2886 3.93508 13.3279ZM4.23168 13.8215C4.17782 13.8589 4.08977 13.8238 4.03534 13.7457C3.98148 13.6675 3.98148 13.5738 4.0365 13.5362C4.09108 13.4987 4.17782 13.5325 4.23299 13.61C4.28669 13.6895 4.28669 13.7832 4.23168 13.8215ZM4.73328 14.3931C4.6851 14.4463 4.58249 14.432 4.50739 14.3595C4.43055 14.2886 4.40915 14.1881 4.45747 14.1349C4.50623 14.0817 4.60942 14.0967 4.6851 14.1686C4.76137 14.2393 4.78466 14.3406 4.73328 14.3931ZM5.38155 14.5861C5.3603 14.6549 5.26148 14.6862 5.16192 14.657C5.06252 14.6269 4.99746 14.5462 5.01754 14.4767C5.03821 14.4074 5.13747 14.3748 5.23775 14.4061C5.33701 14.436 5.40222 14.5161 5.38155 14.5861ZM6.11931 14.668C6.12179 14.7404 6.03737 14.8005 5.93287 14.8019C5.82779 14.8042 5.74279 14.7455 5.74162 14.6742C5.74162 14.601 5.82415 14.5415 5.92923 14.5397C6.03373 14.5377 6.11931 14.5959 6.11931 14.668ZM6.84408 14.6402C6.8566 14.7109 6.78397 14.7835 6.6802 14.8029C6.57817 14.8215 6.48371 14.7779 6.47076 14.7077C6.4581 14.6352 6.53203 14.5626 6.63391 14.5438C6.73783 14.5258 6.83084 14.5683 6.84408 14.6402Z" fill="white"/>
</svg>
