<svg width="30" height="30" viewBox="0 0 30 30" fill="none" xmlns="http://www.w3.org/2000/svg">
<path d="M28.7467 0H14.3003C14.3003 1.72955 14.9874 3.38827 16.2104 4.61125C17.4333 5.83423 19.0921 6.52129 20.8216 6.52129H23.4828V9.09054C23.4851 12.6889 26.4016 15.6054 30 15.6077V1.25329C30 0.561118 29.4389 0 28.7467 0Z" fill="#2684FF"/>
<path d="M21.5986 7.19824H7.15222C7.15453 10.7966 10.071 13.7131 13.6694 13.7154H16.3306V16.293C16.3352 19.8913 19.2536 22.8059 22.8519 22.8059V8.45153C22.8519 7.75936 22.2908 7.19824 21.5986 7.19824Z" fill="url(#paint0_linear_286_449)"/>
<path d="M14.4464 14.3921H0C0 17.9937 2.91971 20.9134 6.52136 20.9134H9.19089V23.4826C9.19319 27.0777 12.1046 29.9928 15.6997 29.9997V15.6454C15.6997 14.9532 15.1386 14.3921 14.4464 14.3921Z" fill="url(#paint1_linear_286_449)"/>
<defs>
<linearGradient id="paint0_linear_286_449" x1="19.3554" y1="4.16864" x2="13.2475" y2="10.542" gradientUnits="userSpaceOnUse">
<stop offset="0.18" stop-color="#0052CC"/>
<stop offset="1" stop-color="#2684FF"/>
</linearGradient>
<linearGradient id="paint1_linear_286_449" x1="457.242" y1="423.536" x2="194.834" y2="683.229" gradientUnits="userSpaceOnUse">
<stop offset="0.18" stop-color="#0052CC"/>
<stop offset="1" stop-color="#2684FF"/>
</linearGradient>
</defs>
</svg>
