<svg width="18" height="18" viewBox="0 0 18 18" fill="none" xmlns="http://www.w3.org/2000/svg">
<rect x="0.25" y="0.25" width="17.5" height="17.5" rx="8.75" fill="#1275B1"/>
<path d="M6.8866 5.05759C6.8866 5.64169 6.38032 6.11519 5.7558 6.11519C5.13128 6.11519 4.625 5.64169 4.625 5.05759C4.625 4.4735 5.13128 4 5.7558 4C6.38032 4 6.8866 4.4735 6.8866 5.05759Z" fill="white"/>
<path d="M4.77964 6.89256H6.71263V12.75H4.77964V6.89256Z" fill="white"/>
<path d="M9.82474 6.89256H7.89175V12.75H9.82474C9.82474 12.75 9.82474 10.906 9.82474 9.75304C9.82474 9.06101 10.061 8.36596 11.0039 8.36596C12.0694 8.36596 12.063 9.27158 12.058 9.97318C12.0515 10.8903 12.067 11.8262 12.067 12.75H14V9.65857C13.9836 7.68461 13.4693 6.77505 11.7771 6.77505C10.7721 6.77505 10.1492 7.23129 9.82474 7.64406V6.89256Z" fill="white"/>
</svg>
