<svg width="24" height="30" viewBox="0 0 24 30" fill="none" xmlns="http://www.w3.org/2000/svg">
<path fill-rule="evenodd" clip-rule="evenodd" d="M2.4 9.6875C2.4 4.31023 6.56349 0 12 0C17.4365 0 21.6 4.31023 21.6 9.6875C21.6 12.7007 20.2557 15.8397 18.5437 18.4741C16.8214 21.1245 14.6155 23.436 12.6656 24.7901C12.2626 25.07 11.7374 25.07 11.3344 24.7901C9.38454 23.436 7.17862 21.1245 5.45627 18.4741C3.74426 15.8397 2.4 12.7007 2.4 9.6875ZM12 6.25C10.0118 6.25 8.4 7.92893 8.4 10C8.4 12.0711 10.0118 13.75 12 13.75C13.9882 13.75 15.6 12.0711 15.6 10C15.6 7.92893 13.9882 6.25 12 6.25Z" fill="#E3E3E3"/>
</svg>
