<svg width="663" height="97" viewBox="0 0 663 97" fill="none" xmlns="http://www.w3.org/2000/svg">
<path d="M0.181818 95V1.90909H35.0909C42.2424 1.90909 48.2424 3.24242 53.0909 5.90909C57.9697 8.57575 61.6515 12.2424 64.1364 16.9091C66.6515 21.5455 67.9091 26.8182 67.9091 32.7273C67.9091 38.697 66.6515 44 64.1364 48.6364C61.6212 53.2727 57.9091 56.9242 53 59.5909C48.0909 62.2273 42.0455 63.5455 34.8636 63.5455H11.7273V49.6818H32.5909C36.7727 49.6818 40.197 48.9545 42.8636 47.5C45.5303 46.0455 47.5 44.0455 48.7727 41.5C50.0758 38.9545 50.7273 36.0303 50.7273 32.7273C50.7273 29.4242 50.0758 26.5152 48.7727 24C47.5 21.4848 45.5152 19.5303 42.8182 18.1364C40.1515 16.7121 36.7121 16 32.5 16H17.0455V95H0.181818ZM82.5568 95V1.90909H117.466C124.617 1.90909 130.617 3.15151 135.466 5.63636C140.345 8.12121 144.027 11.6061 146.511 16.0909C149.027 20.5455 150.284 25.7424 150.284 31.6818C150.284 37.6515 149.011 42.8333 146.466 47.2273C143.951 51.5909 140.239 54.9697 135.33 57.3636C130.42 59.7273 124.39 60.9091 117.239 60.9091H92.375V46.9091H114.966C119.148 46.9091 122.572 46.3333 125.239 45.1818C127.905 44 129.875 42.2879 131.148 40.0455C132.451 37.7727 133.102 34.9848 133.102 31.6818C133.102 28.3788 132.451 25.5606 131.148 23.2273C129.845 20.8636 127.86 19.0758 125.193 17.8636C122.527 16.6212 119.087 16 114.875 16H99.4205V95H82.5568ZM130.648 52.8182L153.693 95H134.875L112.239 52.8182H130.648ZM248.989 48.4545C248.989 58.4848 247.11 67.0758 243.352 74.2273C239.625 81.3485 234.534 86.803 228.08 90.5909C221.655 94.3788 214.367 96.2727 206.216 96.2727C198.064 96.2727 190.761 94.3788 184.307 90.5909C177.883 86.7727 172.792 81.303 169.034 74.1818C165.307 67.0303 163.443 58.4545 163.443 48.4545C163.443 38.4242 165.307 29.8485 169.034 22.7273C172.792 15.5758 177.883 10.1061 184.307 6.31818C190.761 2.5303 198.064 0.63636 206.216 0.63636C214.367 0.63636 221.655 2.5303 228.08 6.31818C234.534 10.1061 239.625 15.5758 243.352 22.7273C247.11 29.8485 248.989 38.4242 248.989 48.4545ZM232.034 48.4545C232.034 41.3939 230.928 35.4394 228.716 30.5909C226.534 25.7121 223.504 22.0303 219.625 19.5455C215.746 17.0303 211.277 15.7727 206.216 15.7727C201.155 15.7727 196.686 17.0303 192.807 19.5455C188.928 22.0303 185.883 25.7121 183.67 30.5909C181.489 35.4394 180.398 41.3939 180.398 48.4545C180.398 55.5151 181.489 61.4848 183.67 66.3636C185.883 71.2121 188.928 74.8939 192.807 77.4091C196.686 79.8939 201.155 81.1364 206.216 81.1364C211.277 81.1364 215.746 79.8939 219.625 77.4091C223.504 74.8939 226.534 71.2121 228.716 66.3636C230.928 61.4848 232.034 55.5151 232.034 48.4545ZM301.659 1.90909H318.386V67.3636C318.356 73.3636 317.083 78.5303 314.568 82.8636C312.053 87.1667 308.538 90.4848 304.023 92.8182C299.538 95.1212 294.311 96.2727 288.341 96.2727C282.886 96.2727 277.977 95.303 273.614 93.3636C269.28 91.3939 265.841 88.4848 263.295 84.6364C260.75 80.7879 259.477 76 259.477 70.2727H276.25C276.28 72.7879 276.826 74.9545 277.886 76.7727C278.977 78.5909 280.477 79.9848 282.386 80.9545C284.295 81.9242 286.492 82.4091 288.977 82.4091C291.674 82.4091 293.962 81.8485 295.841 80.7273C297.72 79.5758 299.144 77.8788 300.114 75.6364C301.114 73.3939 301.629 70.6364 301.659 67.3636V1.90909ZM336.682 95V1.90909H397.227V16.0455H353.545V41.3182H394.091V55.4545H353.545V80.8636H397.591V95H336.682ZM494.114 33.3182H477.114C476.629 30.5303 475.735 28.0606 474.432 25.9091C473.129 23.7273 471.508 21.8788 469.568 20.3636C467.629 18.8485 465.417 17.7121 462.932 16.9545C460.477 16.1667 457.826 15.7727 454.977 15.7727C449.917 15.7727 445.432 17.0455 441.523 19.5909C437.614 22.1061 434.553 25.803 432.341 30.6818C430.129 35.5303 429.023 41.4545 429.023 48.4545C429.023 55.5758 430.129 61.5758 432.341 66.4545C434.583 71.303 437.644 74.9697 441.523 77.4545C445.432 79.9091 449.902 81.1364 454.932 81.1364C457.72 81.1364 460.326 80.7727 462.75 80.0455C465.205 79.2879 467.402 78.1818 469.341 76.7273C471.311 75.2727 472.962 73.4848 474.295 71.3636C475.659 69.2424 476.598 66.8182 477.114 64.0909L494.114 64.1818C493.477 68.6061 492.098 72.7576 489.977 76.6364C487.886 80.5152 485.144 83.9394 481.75 86.9091C478.356 89.8485 474.386 92.1515 469.841 93.8182C465.295 95.4545 460.25 96.2727 454.705 96.2727C446.523 96.2727 439.22 94.3788 432.795 90.5909C426.371 86.803 421.311 81.3333 417.614 74.1818C413.917 67.0303 412.068 58.4545 412.068 48.4545C412.068 38.4242 413.932 29.8485 417.659 22.7273C421.386 15.5758 426.462 10.1061 432.886 6.31818C439.311 2.5303 446.583 0.63636 454.705 0.63636C459.886 0.63636 464.705 1.36363 469.159 2.81818C473.614 4.27273 477.583 6.40909 481.068 9.22727C484.553 12.0151 487.417 15.4394 489.659 19.5C491.932 23.5303 493.417 28.1364 494.114 33.3182ZM505.466 16.0455V1.90909H579.739V16.0455H550.966V95H534.239V16.0455H505.466ZM644.648 27.5C644.223 23.5303 642.436 20.4394 639.284 18.2273C636.163 16.0151 632.102 14.9091 627.102 14.9091C623.587 14.9091 620.572 15.4394 618.057 16.5C615.542 17.5606 613.617 19 612.284 20.8182C610.951 22.6364 610.269 24.7121 610.239 27.0455C610.239 28.9848 610.678 30.6667 611.557 32.0909C612.466 33.5152 613.693 34.7273 615.239 35.7273C616.784 36.697 618.496 37.5151 620.375 38.1818C622.254 38.8485 624.148 39.4091 626.057 39.8636L634.784 42.0455C638.299 42.8636 641.678 43.9697 644.92 45.3636C648.193 46.7576 651.117 48.5152 653.693 50.6364C656.299 52.7576 658.36 55.3182 659.875 58.3182C661.39 61.3182 662.148 64.8333 662.148 68.8636C662.148 74.3182 660.754 79.1212 657.966 83.2727C655.178 87.3939 651.148 90.6212 645.875 92.9545C640.633 95.2576 634.284 96.4091 626.83 96.4091C619.587 96.4091 613.299 95.2879 607.966 93.0455C602.663 90.803 598.511 87.5303 595.511 83.2273C592.542 78.9242 590.936 73.6818 590.693 67.5H607.284C607.527 70.7424 608.527 73.4394 610.284 75.5909C612.042 77.7424 614.33 79.3485 617.148 80.4091C619.996 81.4697 623.178 82 626.693 82C630.36 82 633.572 81.4545 636.33 80.3636C639.117 79.2424 641.299 77.697 642.875 75.7273C644.451 73.7273 645.254 71.3939 645.284 68.7273C645.254 66.303 644.542 64.303 643.148 62.7273C641.754 61.1212 639.799 59.7879 637.284 58.7273C634.799 57.6364 631.89 56.6667 628.557 55.8182L617.966 53.0909C610.299 51.1212 604.239 48.1364 599.784 44.1364C595.36 40.1061 593.148 34.7576 593.148 28.0909C593.148 22.6061 594.633 17.803 597.602 13.6818C600.602 9.56061 604.678 6.36363 609.83 4.0909C614.981 1.78787 620.814 0.63636 627.33 0.63636C633.936 0.63636 639.723 1.78787 644.693 4.0909C649.693 6.36363 653.617 9.5303 656.466 13.5909C659.314 17.6212 660.784 22.2576 660.875 27.5H644.648Z" fill="white"/>
</svg>
