<svg width="646" height="97" viewBox="0 0 646 97" fill="none" xmlns="http://www.w3.org/2000/svg">
<path d="M0.272728 95V1.90909H31.7273C39.0303 1.90909 45 3.22727 49.6364 5.86363C54.303 8.4697 57.7576 12 60 16.4545C62.2424 20.9091 63.3636 25.8788 63.3636 31.3636C63.3636 36.8485 62.2424 41.8333 60 46.3182C57.7879 50.803 54.3636 54.3788 49.7273 57.0455C45.0909 59.6818 39.1515 61 31.9091 61H9.36364V51H31.5455C36.5455 51 40.5606 50.1364 43.5909 48.4091C46.6212 46.6818 48.8182 44.3485 50.1818 41.4091C51.5758 38.4394 52.2727 35.0909 52.2727 31.3636C52.2727 27.6364 51.5758 24.303 50.1818 21.3636C48.8182 18.4242 46.6061 16.1212 43.5455 14.4545C40.4849 12.7576 36.4242 11.9091 31.3636 11.9091H11.5455V95H0.272728ZM81.5227 95V1.90909H112.977C120.25 1.90909 126.22 3.15151 130.886 5.63636C135.553 8.0909 139.008 11.4697 141.25 15.7727C143.492 20.0758 144.614 24.9697 144.614 30.4545C144.614 35.9394 143.492 40.803 141.25 45.0455C139.008 49.2879 135.568 52.6212 130.932 55.0455C126.295 57.4394 120.371 58.6364 113.159 58.6364H87.7045V48.4545H112.795C117.765 48.4545 121.765 47.7273 124.795 46.2727C127.856 44.8182 130.068 42.7576 131.432 40.0909C132.826 37.3939 133.523 34.1818 133.523 30.4545C133.523 26.7273 132.826 23.4697 131.432 20.6818C130.038 17.8939 127.811 15.7424 124.75 14.2273C121.689 12.6818 117.644 11.9091 112.614 11.9091H92.7955V95H81.5227ZM125.341 53.1818L148.25 95H135.159L112.614 53.1818H125.341ZM241.943 48.4545C241.943 58.2727 240.17 66.7576 236.625 73.9091C233.08 81.0606 228.216 86.5758 222.034 90.4545C215.852 94.3333 208.792 96.2727 200.852 96.2727C192.913 96.2727 185.852 94.3333 179.67 90.4545C173.489 86.5758 168.625 81.0606 165.08 73.9091C161.534 66.7576 159.761 58.2727 159.761 48.4545C159.761 38.6364 161.534 30.1515 165.08 23C168.625 15.8485 173.489 10.3333 179.67 6.45454C185.852 2.57575 192.913 0.63636 200.852 0.63636C208.792 0.63636 215.852 2.57575 222.034 6.45454C228.216 10.3333 233.08 15.8485 236.625 23C240.17 30.1515 241.943 38.6364 241.943 48.4545ZM231.034 48.4545C231.034 40.3939 229.686 33.5909 226.989 28.0455C224.322 22.5 220.701 18.303 216.125 15.4545C211.58 12.6061 206.489 11.1818 200.852 11.1818C195.216 11.1818 190.11 12.6061 185.534 15.4545C180.989 18.303 177.367 22.5 174.67 28.0455C172.004 33.5909 170.67 40.3939 170.67 48.4545C170.67 56.5151 172.004 63.3182 174.67 68.8636C177.367 74.4091 180.989 78.6061 185.534 81.4545C190.11 84.303 195.216 85.7273 200.852 85.7273C206.489 85.7273 211.58 84.303 216.125 81.4545C220.701 78.6061 224.322 74.4091 226.989 68.8636C229.686 63.3182 231.034 56.5151 231.034 48.4545ZM296.534 1.90909H307.807V68.4545C307.807 74.3939 306.716 79.4394 304.534 83.5909C302.352 87.7424 299.277 90.8939 295.307 93.0455C291.337 95.197 286.655 96.2727 281.261 96.2727C276.17 96.2727 271.64 95.3485 267.67 93.5C263.701 91.6212 260.58 88.9545 258.307 85.5C256.034 82.0455 254.898 77.9394 254.898 73.1818H265.989C265.989 75.8182 266.64 78.1212 267.943 80.0909C269.277 82.0303 271.095 83.5455 273.398 84.6364C275.701 85.7273 278.322 86.2727 281.261 86.2727C284.504 86.2727 287.261 85.5909 289.534 84.2273C291.807 82.8636 293.534 80.8636 294.716 78.2273C295.928 75.5606 296.534 72.303 296.534 68.4545V1.90909ZM330.398 95V1.90909H386.58V11.9091H341.67V43.3636H383.67V53.3636H341.67V85H387.307V95H330.398ZM481.807 31H470.534C469.867 27.7576 468.701 24.9091 467.034 22.4545C465.398 20 463.398 17.9394 461.034 16.2727C458.701 14.5758 456.11 13.303 453.261 12.4545C450.413 11.6061 447.443 11.1818 444.352 11.1818C438.716 11.1818 433.61 12.6061 429.034 15.4545C424.489 18.303 420.867 22.5 418.17 28.0455C415.504 33.5909 414.17 40.3939 414.17 48.4545C414.17 56.5151 415.504 63.3182 418.17 68.8636C420.867 74.4091 424.489 78.6061 429.034 81.4545C433.61 84.303 438.716 85.7273 444.352 85.7273C447.443 85.7273 450.413 85.303 453.261 84.4545C456.11 83.6061 458.701 82.3485 461.034 80.6818C463.398 78.9848 465.398 76.9091 467.034 74.4545C468.701 71.9697 469.867 69.1212 470.534 65.9091H481.807C480.958 70.6667 479.413 74.9242 477.17 78.6818C474.928 82.4394 472.14 85.6364 468.807 88.2727C465.473 90.8788 461.731 92.8636 457.58 94.2273C453.458 95.5909 449.049 96.2727 444.352 96.2727C436.413 96.2727 429.352 94.3333 423.17 90.4545C416.989 86.5758 412.125 81.0606 408.58 73.9091C405.034 66.7576 403.261 58.2727 403.261 48.4545C403.261 38.6364 405.034 30.1515 408.58 23C412.125 15.8485 416.989 10.3333 423.17 6.45454C429.352 2.57575 436.413 0.63636 444.352 0.63636C449.049 0.63636 453.458 1.31818 457.58 2.68182C461.731 4.04545 465.473 6.04545 468.807 8.68182C472.14 11.2879 474.928 14.4697 477.17 18.2273C479.413 21.9545 480.958 26.2121 481.807 31ZM494.932 11.9091V1.90909H564.75V11.9091H535.477V95H524.205V11.9091H494.932ZM633.057 25.1818C632.511 20.5758 630.299 17 626.42 14.4545C622.542 11.9091 617.784 10.6364 612.148 10.6364C608.027 10.6364 604.42 11.303 601.33 12.6364C598.269 13.9697 595.875 15.803 594.148 18.1364C592.451 20.4697 591.602 23.1212 591.602 26.0909C591.602 28.5758 592.193 30.7121 593.375 32.5C594.587 34.2576 596.133 35.7273 598.011 36.9091C599.89 38.0606 601.86 39.0151 603.92 39.7727C605.981 40.5 607.875 41.0909 609.602 41.5455L619.057 44.0909C621.481 44.7273 624.178 45.6061 627.148 46.7273C630.148 47.8485 633.011 49.3788 635.739 51.3182C638.496 53.2273 640.769 55.6818 642.557 58.6818C644.345 61.6818 645.239 65.3636 645.239 69.7273C645.239 74.7576 643.92 79.303 641.284 83.3636C638.678 87.4242 634.86 90.6515 629.83 93.0455C624.83 95.4394 618.754 96.6364 611.602 96.6364C604.936 96.6364 599.163 95.5606 594.284 93.4091C589.436 91.2576 585.617 88.2576 582.83 84.4091C580.072 80.5606 578.511 76.0909 578.148 71H589.784C590.087 74.5152 591.269 77.4242 593.33 79.7273C595.42 82 598.057 83.697 601.239 84.8182C604.451 85.9091 607.905 86.4545 611.602 86.4545C615.905 86.4545 619.769 85.7576 623.193 84.3636C626.617 82.9394 629.33 80.9697 631.33 78.4545C633.33 75.9091 634.33 72.9394 634.33 69.5455C634.33 66.4545 633.466 63.9394 631.739 62C630.011 60.0606 627.739 58.4848 624.92 57.2727C622.102 56.0606 619.057 55 615.784 54.0909L604.33 50.8182C597.057 48.7273 591.299 45.7424 587.057 41.8636C582.814 37.9848 580.693 32.9091 580.693 26.6364C580.693 21.4242 582.102 16.8788 584.92 13C587.769 9.09091 591.587 6.0606 596.375 3.90909C601.193 1.72727 606.572 0.63636 612.511 0.63636C618.511 0.63636 623.845 1.71212 628.511 3.86363C633.178 5.98484 636.875 8.89393 639.602 12.5909C642.36 16.2879 643.814 20.4848 643.966 25.1818H633.057Z" fill="black"/>
</svg>
